# AST/ASF file generated using VICON BodyLanguage
# -----------------------------------------------
:version 1.10
:name VICON
:units
  mass 1.0
  length 0.45
  angle deg
:documentation
   .ast/.asf automatically generated from VICON data using
   VICON BodyBuilder and BodyLanguage model FoxedUp or BRILLIANT.MOD
:root
   order TX TY TZ RX RY RZ
   axis XYZ
   position 0 0 0  
   orientation 0 0 0 
:bonedata
  begin
     id 1 
     name lhipjoint
     direction 0.570549 -0.739093 0.358072 
     length 2.41801 
     axis 0 0 0  XYZ
  end
  begin
     id 2 
     name lfemur
     direction 0.34202 -0.939693 0  
     length 7.44434  
     axis 0 0 20  XYZ
    dof rx ry rz
    limits (-160.0 20.0)
           (-70.0 70.0)
           (-60.0 70.0)
  end
  begin
     id 3 
     name ltibia
     direction 0.34202 -0.939693 0   
     length 7.60047   
     axis 0 0 20   XYZ
    dof rx
    limits (-10.0 170.0)
  end
  begin
     id 4 
     name lfoot
     direction 0.0909041 -0.249757 0.964032   
     length 2.03437   
     axis -90 7.62852e-016 20   XYZ
    dof rx rz
    limits (-45.0 90.0)
           (-70.0 20.0)
  end
  begin
     id 5 
     name ltoes
     direction 1.53547e-011 -4.2174e-011 1   
     length 1.02054   
     axis -90 7.62852e-016 20   XYZ
    dof rx
    limits (-90.0 20.0)
  end
  begin
     id 6 
     name rhipjoint
     direction -0.558096 -0.746754 0.361784   
     length 2.3932  
     axis 0 0 0  XYZ 
  end
  begin
     id 7 
     name rfemur
     direction -0.34202 -0.939693 0   
     length 7.3886   
     axis 0 0 -20   XYZ
    dof rx ry rz
    limits (-160.0 20.0)
           (-70.0 70.0)
           (-70.0 60.0)
  end
  begin
     id 8 
     name rtibia
     direction -0.34202 -0.939693 0   
     length 7.4839   
     axis 0 0 -20   XYZ
    dof rx
    limits (-10.0 170.0)
 end
 begin
     id 9 
     name rfoot
     direction -0.114619 -0.314914 0.942174   
     length 2.25127  
     axis -90 -7.62852e-016 -20   XYZ
    dof rx rz
    limits (-45.0 90.0)
           (-20.0 70.0)
  end
  begin
     id 10 
     name rtoes
     direction -1.53518e-011 -4.21881e-011 1   
     length 1.11821   
     axis -90 -7.62852e-016 -20   XYZ
    dof rx
    limits (-90.0 20.0)
  end
  begin
     id 11 
     name lowerback
     direction -0.00902269 0.996426 -0.0839821   
     length 2.25052   
     axis 0 0 0   XYZ
    dof rx ry rz
    limits (-20.0 45.0)
           (-30.0 30.0)
           (-30.0 30.0)
  end
  begin
     id 12 
     name upperback
     direction 0.0370973 0.999169 -0.0168941   
     length 2.24876   
     axis 0 0 0   XYZ
    dof rx ry rz
    limits (-20.0 45.0)
           (-30.0 30.0)
           (-30.0 30.0)
  end
  begin
     id 13 
     name thorax
     direction 0.0402726 0.998931 0.0227027   
     length 2.26408   
     axis 0 0 0   XYZ
    dof rx ry rz
    limits (-20.0 45.0)
           (-30.0 30.0)
           (-30.0 30.0)
  end
  begin
     id 14 
     name lowerneck
     direction -0.0733697 0.98508 0.155675   
     length 1.58204   
     axis 0 0 0   XYZ
    dof rx ry rz
    limits (-20.0 45.0)
           (-30.0 30.0)
           (-30.0 30.0)
  end
  begin
     id 15 
     name upperneck
     direction 0.0426554 0.993501 -0.105526   
     length 1.61222   
     axis 0 0 0   XYZ
    dof rx ry rz
    limits (-20.0 45.0)
           (-30.0 30.0)
           (-30.0 30.0)
  end
  begin
     id 16
     name head
     direction 0.020792 0.998384 -0.0528868  
     length 1.61527  
     axis 0 0 0   XYZ
    dof rx ry rz
    limits (-20.0 45.0)
           (-30.0 30.0)
           (-30.0 30.0)
  end
  begin
     id 17 
     name lclavicle
     direction 0.967109 0.155462 -0.201325  
     length 3.59357  
     axis 0 0 0   XYZ
    dof ry rz
    limits (-20.0 10.0)
           (0.0 20.0)
  end
  begin
     id 18 
     name lhumerus
     direction 1 -4.48968e-011 2.38195e-027   
     length 5.38154   
     axis 180 -30 -90   XYZ
    dof rx ry rz
    limits (-60.0 90.0)
           (-90.0 90.0)
           (-90.0 90.0)
  end
  begin
     id 19
     name lradius
     direction 1 -4.48961e-011 4.85371e-027   
     length 3.33312   
     axis 180 -30 -90   XYZ
    dof rx
    limits (-10.0 170.0)
  end
  begin
     id 20
     name lwrist
     direction 1 -4.48961e-011 4.76515e-027   
     length 1.66656   
     axis -3.27502e-015 90 90   XYZ
    dof ry
    limits (-180.0 0.0)
 end
  begin
     id 21 
     name lhand
     direction 1 -4.48951e-011 9.53074e-027   
     length 0.710789   
     axis -6.08098e-015 90 90   XYZ
    dof rx rz
    limits (-90.0 90.0)
           (-45.0 45.0)
  end
  begin
     id 22 
     name lfingers
     direction 1 -4.48953e-011 1.90613e-026   
     length 0.573057   
     axis -1.21619e-014 90 90   XYZ
    dof rx
    limits (0.0 90.0)
  end
  begin
     id 23
     name lthumb
     direction 0.707107 -6.34973e-011 0.707107   
     length 0.822798   
     axis -90 45 -9.86923e-015   XYZ
    dof rx rz
    limits (-45.0 45.0)
           (-45.0 45.0)
  end
  begin
     id 24 
     name rclavicle
     direction -0.9585 0.265289 -0.104398   
     length 3.42039  
     axis 0 0 0   XYZ 
    dof ry rz
    limits (-10.0 20.0)
           (-20.0 0.0)
  end
  begin
     id 25 
     name rhumerus
     direction -1 -4.48977e-011 2.21478e-027  
     length 5.16954   
     axis 180 30 90   XYZ
    dof rx ry rz
    limits (-90.0 60.0)
           (-90.0 90.0)
           (-90.0 90.0)
  end
  begin
     id 26 
     name rradius
     direction -1 -4.48967e-011 5.63677e-027   
     length 3.38287   
     axis 180 30 90   XYZ
    dof rx
    limits (-10.0 170.0)
  end
  begin
     id 27 
     name rwrist
     direction -1 -4.48967e-011 4.76501e-027   
     length 1.69144   
     axis -3.27502e-015 -90 -90   XYZ
    dof ry
    limits (-180.0 0.0)
  end
  begin
     id 28
     name rhand
     direction -1 -4.48902e-011 9.53292e-027   
     length 0.817967   
     axis -6.08098e-015 -90 -90   XYZ
    dof rx rz
    limits (-90.0 90.0)
           (-45.0 45.0)
  end
  begin
     id 29
     name rfingers
     direction -1 -4.49012e-011 1.90561e-026   
     length 0.659466   
     axis -1.21619e-014 -90 -90   XYZ
    dof rx
    limits (0.0 90.0)
  end
  begin
     id 30
     name rthumb
     direction -0.707107 -6.34944e-011 0.707107   
     length 0.946865   
     axis -90 -45 9.86923e-015   XYZ
    dof rx rz
    limits (-45.0 45.0)
           (-45.0 45.0)
  end
:hierarchy
  begin
    root lhipjoint rhipjoint lowerback
    lhipjoint lfemur
    lfemur ltibia
    ltibia lfoot
    lfoot ltoes
    rhipjoint rfemur
    rfemur rtibia
    rtibia rfoot
    rfoot rtoes
    lowerback upperback
    upperback thorax
    thorax lowerneck lclavicle rclavicle
    lowerneck upperneck
    upperneck head
    lclavicle lhumerus
    lhumerus lradius
    lradius lwrist
    lwrist lhand lthumb
    lhand lfingers
    rclavicle rhumerus
    rhumerus rradius
    rradius rwrist
    rwrist rhand rthumb
    rhand rfingers
  end

#!OML:ASF F:\twosubjects\two\wednesday\Session 1\Justin1.ASF
:FULLY-SPECIFIED
:DEGREES
99
root 12.5954 17.9676 -0.429134 0.552857 21.906 -3.58145
lowerback 2.91824 0.0762961 1.80463
upperback 0.0938262 0.24773 4.24756
thorax -1.55294 0.13277 3.34832
lowerneck -4.63903 -12.0335 -15.4319
upperneck 20.9291 -16.8944 9.91482
head 9.54562 -8.30299 4.00739
rclavicle 2.39536e-014 -1.66979e-014
rhumerus -25.0399 -36.7092 -71.1538
rradius 49.2324
rwrist -38.6337
rhand -54.3673 60.8935
rfingers 7.12502
rthumb -26.7749 32.7685
lclavicle 2.39536e-014 -1.66979e-014
lhumerus -42.1541 18.7335 67.3109
lradius 31.5644
lwrist -7.61621
lhand -0.692522 38.775
lfingers 7.12502
lthumb 24.9269 67.1694
rfemur -6.79965 -8.40622 27.48
rtibia 21.0184
rfoot -12.0217 -5.15743
rtoes -9.87894
lfemur -19.2015 -1.13084 -11.781
ltibia 58.7676
lfoot -4.78534 -5.43095
ltoes -13.2635
100
root 12.628 17.941 -0.25743 0.367197 22.2447 -3.67004
lowerback 3.17826 0.0965693 1.83656
upperback -0.0671662 0.292679 4.13344
thorax -1.86574 0.155069 3.21061
lowerneck -3.40728 -11.9306 -15.3883
upperneck 20.0929 -17.0211 10.6974
head 9.1133 -8.35019 4.33109
rclavicle 9.98893e-015 -2.38542e-015
rhumerus -26.0571 -36.9451 -70.1342
rradius 45.9525
rwrist -36.7258
rhand -54.2476 60.7949
rfingers 7.12502
rthumb -26.6603 32.6524
lclavicle 9.98893e-015 -2.38542e-015
lhumerus -42.9369 18.8604 66.8632
lradius 31.5306
lwrist -7.25406
lhand -1.38248 37.9998
lfingers 7.12502
lthumb 24.2656 66.4842
rfemur -5.99763 -9.22259 27.565
rtibia 20.9169
rfoot -12.467 -5.0807
rtoes -11.9382
lfemur -19.8968 -1.35786 -11.7789
ltibia 58.2881
lfoot -5.96854 -5.14835
ltoes -14.7808
101
root 12.6285 17.9132 -0.121375 0.0391782 21.8119 -5.38744
lowerback 3.27042 0.416099 3.20824
upperback -0.27326 0.798564 4.44958
thorax -2.13856 0.396492 2.74288
lowerneck -1.55522 -11.7063 -15.3647
upperneck 18.7886 -17.0398 11.7347
head 8.42674 -8.36721 4.79863
rclavicle 5.16343e-014 -3.49861e-014
rhumerus -26.9348 -36.1614 -69.3225
rradius 42.9407
rwrist -35.5243
rhand -54.3456 59.9841
rfingers 7.12502
rthumb -26.7541 31.8559
lclavicle 5.16343e-014 -3.49861e-014
lhumerus -43.3398 19.1825 66.4725
lradius 31.3059
lwrist -7.12855
lhand -1.57169 36.9248
lfingers 7.12502
lthumb 24.0841 65.4333
rfemur -5.76441 -7.93918 29.5826
rtibia 20.7219
rfoot -13.1725 -5.74116
rtoes -8.33273
lfemur -21.2938 -0.662623 -9.84847
ltibia 57.8033
lfoot -7.04642 -5.10507
ltoes -16.2087
102
root 12.6456 17.9021 0.00979697 -0.126157 21.4026 -6.30612
lowerback 3.20906 0.712407 4.05248
upperback -0.185834 1.22097 4.53381
thorax -2.00947 0.600437 2.33718
lowerneck -1.01017 -11.8369 -15.2232
upperneck 18.214 -17.3447 12.2446
head 8.2152 -8.49519 4.94245
rclavicle -3.78188e-014 -8.74653e-015
rhumerus -27.398 -34.7351 -68.9572
rradius 40.153
rwrist -35.3961
rhand -53.9949 60.1625
rfingers 7.12502
rthumb -26.4184 31.9834
lclavicle -3.78188e-014 -8.74653e-015
lhumerus -43.4043 20.0575 66.0669
lradius 31.1106
lwrist -7.7272
lhand -0.984083 36.5416
lfingers 7.12502
lthumb 24.6475 64.9744
rfemur -5.35628 -7.27914 30.6129
rtibia 20.5481
rfoot -14.7701 -5.78072
rtoes 0.0389805
lfemur -22.3555 -0.317925 -8.90547
ltibia 57.1258
lfoot -7.78562 -4.44578
ltoes -15.1031
103
root 12.6783 17.901 0.159241 0.0956468 21.5045 -5.90641
lowerback 3.1553 0.886625 3.87592
upperback -0.140011 1.42917 4.16139
thorax -1.92829 0.703793 2.04106
lowerneck -1.88879 -12.4233 -15.0345
upperneck 19.0047 -18.1518 12.1885
head 8.74011 -8.8164 4.71761
rclavicle 3.52843e-015 -4.37326e-014
rhumerus -28.1885 -32.8483 -68.8075
rradius 37.9399
rwrist -36.0309
rhand -54.2662 59.9293
rfingers 7.12502
rthumb -26.6781 31.7895
lclavicle 3.52843e-015 -4.37326e-014
lhumerus -43.4917 19.7931 66.1114
lradius 31.2453
lwrist -7.33885
lhand -1.18588 36.5298
lfingers 7.12502
lthumb 24.454 64.9889
rfemur -4.8071 -7.7182 30.1778
rtibia 20.4245
rfoot -13.7289 -5.54229
rtoes -6.72297
lfemur -23.1762 -0.581624 -9.48108
ltibia 56.1792
lfoot -8.566 -3.56138
ltoes -15.1472
104
root 12.7056 17.8901 0.304777 0.230896 21.5561 -5.9786
lowerback 3.08759 1.01145 4.05118
upperback -0.150888 1.59097 3.89869
thorax -1.8902 0.780938 1.66531
lowerneck -3.04671 -13.0612 -14.7947
upperneck 20.1461 -19.0148 11.9356
head 9.42619 -9.14975 4.37886
rclavicle -3.27498e-014 -2.14687e-014
rhumerus -28.8867 -30.7749 -68.9418
rradius 35.8523
rwrist -36.164
rhand -53.7718 57.2665
rfingers 7.12502
rthumb -26.2048 29.0555
lclavicle -3.27498e-014 -2.14687e-014
lhumerus -43.7187 18.911 66.3502
lradius 31.627
lwrist -6.06918
lhand -1.62472 36.5899
lfingers 7.12502
lthumb 24.0333 65.1052
rfemur -4.31161 -7.94323 30.2847
rtibia 20.1687
rfoot -13.4313 -5.4501
rtoes -10.1444
lfemur -24.0664 -0.468255 -9.49898
ltibia 55.0867
lfoot -9.23284 -2.91201
ltoes -16.768
105
root 12.7356 17.8852 0.446801 0.352847 21.4036 -6.06848
lowerback 2.95347 1.11825 4.08925
upperback -0.0449321 1.71674 3.80323
thorax -1.70149 0.845442 1.54368
lowerneck -3.56541 -13.4552 -14.7134
upperneck 20.3963 -19.5673 11.9903
head 9.69101 -9.36639 4.25595
rclavicle -2.70844e-014 3.97569e-015
rhumerus -29.265 -28.5684 -69.1695
rradius 33.6979
rwrist -35.3265
rhand -50.5248 54.2396
rfingers 7.12502
rthumb -23.0927 25.6035
lclavicle -2.70844e-014 3.97569e-015
lhumerus -43.9446 18.8628 66.4794
lradius 31.9013
lwrist -5.35111
lhand -1.60976 36.9928
lfingers 7.12502
lthumb 24.0476 65.5062
rfemur -3.70539 -7.84341 30.3986
rtibia 19.6639
rfoot -13.4873 -5.26699
rtoes -10.5254
lfemur -24.7616 -0.373194 -9.44832
ltibia 53.8712
lfoot -9.95678 -2.47945
ltoes -15.2785
106
root 12.7577 17.9014 0.593993 0.531998 21.1177 -6.13364
lowerback 2.72663 1.31146 3.99419
upperback 0.140358 1.94458 3.78574
thorax -1.38523 0.96465 1.57697
lowerneck -3.35061 -13.6912 -15.0236
upperneck 19.746 -19.9957 12.7491
head 9.60978 -9.549 4.50074
rclavicle 1.67476e-014 -1.82882e-014
rhumerus -29.6892 -26.688 -69.2938
rradius 31.8757
rwrist -33.6061
rhand -53.8945 51.3756
rfingers 7.12502
rthumb -26.3223 23.1821
lclavicle 1.67476e-014 -1.82882e-014
lhumerus -43.9097 19.7115 66.3595
lradius 31.6142
lwrist -5.67728
lhand -1.69475 37.3476
lfingers 7.12502
lthumb 23.9661 65.8717
rfemur -3.13298 -7.41651 30.556
rtibia 19.1318
rfoot -13.4618 -5.21769
rtoes -10.2177
lfemur -25.6721 -0.51124 -9.33573
ltibia 52.6442
lfoot -10.5753 -2.12194
ltoes -11.5151
107
root 12.7681 17.902 0.739482 0.547632 20.7472 -6.67588
lowerback 2.58244 1.58403 4.30948
upperback 0.284385 2.30003 3.82713
thorax -1.14515 1.14462 1.43794
lowerneck -3.08298 -13.9413 -15.4699
upperneck 19.0762 -20.5081 13.8367
head 9.58747 -9.76024 4.86331
rclavicle 6.54002e-014 3.02153e-014
rhumerus -30.315 -25.834 -69.2091
rradius 30.2733
rwrist -30.6432
rhand -53.6975 44.2102
rfingers 7.12502
rthumb -26.1337 15.9887
lclavicle 6.54002e-014 3.02153e-014
lhumerus -43.7382 20.6253 66.0299
lradius 31.0325
lwrist -6.43202
lhand -1.78185 37.2638
lfingers 7.12502
lthumb 23.8826 65.7988
rfemur -2.5632 -6.81455 31.2845
rtibia 18.586
rfoot -13.3827 -5.43907
rtoes -10.5214
lfemur -26.7342 -0.269076 -8.72983
ltibia 51.4354
lfoot -10.916 -1.44953
ltoes -11.2084
108
root 12.7874 17.8677 0.882526 0.631632 20.4602 -6.89492
lowerback 2.48348 1.86938 4.4559
upperback 0.410077 2.66798 3.72977
thorax -0.946735 1.33091 1.25072
lowerneck -3.03698 -14.2543 -15.7487
upperneck 18.6078 -21.0619 14.6587
head 9.64206 -9.98626 5.08535
rclavicle 2.44008e-014 2.82274e-014
rhumerus -30.9253 -25.7605 -68.913
rradius 28.4827
rwrist -27.0685
rhand -50.1996 39.0083
rfingers 7.12502
rthumb -22.7807 10.3334
lclavicle 2.44008e-014 2.82274e-014
lhumerus -43.5218 21.3659 65.7243
lradius 30.5604
lwrist -7.13728
lhand -1.55398 37.0059
lfingers 7.12502
lthumb 24.1011 65.5122
rfemur -1.85866 -6.60838 31.602
rtibia 17.9104
rfoot -13.3074 -5.41324
rtoes -10.3357
lfemur -27.3421 0.0949916 -8.55458
ltibia 50.1522
lfoot -11.5311 -0.767622
ltoes -12.7568
109
root 12.8102 17.8436 1.03022 0.691903 20.3607 -6.84718
lowerback 2.31636 2.04497 4.31552
upperback 0.660797 2.87053 3.63214
thorax -0.594805 1.43881 1.23494
lowerneck -2.96755 -14.5239 -15.9646
upperneck 18.1058 -21.511 15.3
head 9.63929 -10.177 5.25484
rclavicle -6.59468e-014 -3.06128e-014
rhumerus -31.1387 -25.5905 -68.7462
rradius 26.4453
rwrist -23.8181
rhand -47.4778 36.2254
rfingers 7.12502
rthumb -20.1665 7.25214
lclavicle -6.59468e-014 -3.06128e-014
lhumerus -43.3366 22.048 65.635
lradius 30.2546
lwrist -7.50915
lhand -1.37748 36.7646
lfingers 7.12502
lthumb 24.2703 65.2484
rfemur -1.10231 -6.47051 31.616
rtibia 17.4097
rfoot -13.3675 -5.42665
rtoes -8.67297
lfemur -27.7419 0.119067 -8.64886
ltibia 48.7765
lfoot -12.1852 -0.172057
ltoes -14.851
110
root 12.8267 17.836 1.17168 0.629399 20.2238 -6.99355
lowerback 2.46431 2.18785 4.35819
upperback 0.797619 3.06348 3.54623
thorax -0.528107 1.53689 1.11556
lowerneck -2.64445 -14.6552 -16.2449
upperneck 17.5825 -21.8396 16.1885
head 9.60637 -10.3158 5.55907
rclavicle 4.57205e-015 1.94809e-014
rhumerus -31.6411 -25.3994 -68.7031
rradius 24.8585
rwrist -21.2259
rhand -45.5738 33.8272
rfingers 7.12502
rthumb -18.3357 4.67139
lclavicle 4.57205e-015 1.94809e-014
lhumerus -43.2861 22.3332 65.5969
lradius 29.9837
lwrist -7.66953
lhand -1.41758 36.4274
lfingers 7.12502
lthumb 24.2319 64.9163
rfemur -0.470346 -5.70028 31.8834
rtibia 17.1875
rfoot -13.5418 -5.80044
rtoes -5.96172
lfemur -28.2555 0.205386 -8.5243
ltibia 47.2642
lfoot -12.2479 0.418118
ltoes -15.2273
111
root 12.853 17.8381 1.30381 1.00214 20.0089 -6.53331
lowerback 2.70097 2.36623 4.02712
upperback 0.677619 3.30919 3.20624
thorax -0.779607 1.65428 0.929419
lowerneck -2.23762 -14.724 -16.325
upperneck 17.1698 -22.0563 16.7979
head 9.51912 -10.4154 5.76863
rclavicle -3.2054e-014 -3.53837e-014
rhumerus -32.6286 -25.1607 -68.6953
rradius 23.8993
rwrist -19.9755
rhand -42.9222 32.015
rfingers 7.12502
rthumb -15.7835 2.63846
lclavicle -3.2054e-014 -3.53837e-014
lhumerus -43.2551 22.3398 65.4894
lradius 29.4869
lwrist -7.823
lhand -1.43703 35.9094
lfingers 7.12502
lthumb 24.2133 64.4008
rfemur 0.0985245 -5.11832 31.4291
rtibia 16.5924
rfoot -13.6173 -5.68782
rtoes -2.00774
lfemur -28.9446 0.301817 -9.07782
ltibia 45.6286
lfoot -12.1565 0.912618
ltoes -13.4486
112
root 12.8824 17.8417 1.43859 1.36485 19.8442 -6.21945
lowerback 2.77205 2.51387 3.78793
upperback 0.588761 3.50361 2.96498
thorax -0.907383 1.74859 0.802716
lowerneck -1.93389 -14.8765 -16.2498
upperneck 16.8668 -22.2945 16.9169
head 9.40982 -10.5411 5.77628
rclavicle 6.16232e-015 -7.95139e-016
rhumerus -33.1373 -22.2948 -70.467
rradius 24.9522
rwrist -26.1465
rhand -41.4976 28.6485
rfingers 7.12502
rthumb -14.4111 -0.831227
lclavicle 6.16232e-015 -7.95139e-016
lhumerus -43.2036 22.3628 65.5293
lradius 29.0252
lwrist -7.87782
lhand -1.37327 35.3585
lfingers 7.12502
lthumb 24.2744 63.8417
rfemur 0.886106 -5.05404 31.0973
rtibia 15.4791
rfoot -13.6303 -5.38151
rtoes 0.517844
lfemur -29.607 0.0880822 -9.414
ltibia 43.9639
lfoot -12.1379 1.40929
ltoes -13.7545
113
root 12.9088 17.8417 1.58905 1.23893 19.742 -6.75189
lowerback 2.78086 2.62329 4.21406
upperback 0.628077 3.66119 3.01563
thorax -0.846543 1.82759 0.614974
lowerneck -1.58067 -15.0632 -16.258
upperneck 16.5026 -22.5886 17.1188
head 9.30336 -10.6975 5.81693
rclavicle -1.69961e-014 -5.96354e-015
rhumerus -34.0673 -23.8141 -69.2797
rradius 24.1379
rwrist -21.307
rhand -37.3258 22.6109
rfingers 7.12502
rthumb -10.389 -7.11243
lclavicle -1.69961e-014 -5.96354e-015
lhumerus -43.3138 23.2222 65.116
lradius 28.5597
lwrist -8.92127
lhand -0.898871 35.3251
lfingers 7.12502
lthumb 24.7291 63.7468
rfemur 2.03863 -4.99418 31.6833
rtibia 14.1675
rfoot -13.494 -5.32899
rtoes 1.42846
lfemur -29.9998 -0.363358 -8.77349
ltibia 42.3046
lfoot -12.0641 1.95515
ltoes -14.4087
